<svg xmlns="http://www.w3.org/2000/svg" xmlns:xlink="http://www.w3.org/1999/xlink" viewBox="0 0 679.4 660.82"><defs><style>.cls-1,.cls-9{opacity:0.1;}.cls-12,.cls-2,.cls-9{fill:#334752;}.cls-3{fill:#e6e4eb;}.cls-4{fill:#314584;}.cls-5{fill:#5767c7;}.cls-6{fill:#c7e6ff;}.cls-7{fill:#5768c8;}.cls-8{fill:#334787;}.cls-10{fill:#c3d0d8;}.cls-11{fill:#edf2f6;}.cls-12{opacity:0.2;}.cls-13{fill:url(#New_Gradient_Swatch_2);}.cls-14{fill:url(#New_Gradient_Swatch_2-2);}.cls-15{fill:url(#New_Gradient_Swatch_2-3);}.cls-16{fill:url(#New_Gradient_Swatch_2-4);}.cls-17{fill:url(#New_Gradient_Swatch_2-5);}.cls-18{fill:url(#New_Gradient_Swatch_2-6);}.cls-19{fill:url(#New_Gradient_Swatch_4);}.cls-20{fill:#ffe600;}.cls-21{fill:url(#New_Gradient_Swatch_3);}.cls-22{fill:url(#linear-gradient);}.cls-23{fill:url(#linear-gradient-2);}.cls-24{fill:#2c4755;}.cls-25{fill:url(#linear-gradient-3);}.cls-26{fill:url(#linear-gradient-4);}.cls-27{fill:url(#New_Gradient_Swatch_3-2);}.cls-28{fill:url(#New_Gradient_Swatch_3-3);}.cls-29{fill:url(#New_Gradient_Swatch_4-2);}.cls-30{fill:url(#New_Gradient_Swatch_3-4);}.cls-31{fill:url(#linear-gradient-5);}.cls-32{fill:url(#linear-gradient-6);}.cls-33{fill:url(#linear-gradient-7);}.cls-34{fill:url(#New_Gradient_Swatch_8);}.cls-35{fill:url(#linear-gradient-8);}.cls-36{fill:#6a6d89;}.cls-37{fill:url(#New_Gradient_Swatch_4-3);}.cls-38{fill:url(#New_Gradient_Swatch_4-4);}.cls-39{fill:url(#New_Gradient_Swatch_3-5);}.cls-40{fill:url(#New_Gradient_Swatch_3-6);}.cls-41{fill:url(#New_Gradient_Swatch_8-2);}.cls-42{fill:url(#New_Gradient_Swatch_8-3);}.cls-43{fill:url(#New_Gradient_Swatch_3-7);}.cls-44{fill:url(#New_Gradient_Swatch_3-8);}.cls-45{fill:#fff;}.cls-46{fill:url(#linear-gradient-9);}.cls-47{fill:url(#New_Gradient_Swatch_2-7);}.cls-48{fill:url(#linear-gradient-10);}.cls-49{fill:#131316;}.cls-50{fill:url(#New_Gradient_Swatch_4-5);}.cls-51{fill:url(#linear-gradient-11);}.cls-52{fill:url(#linear-gradient-12);}.cls-53{fill:url(#linear-gradient-13);}.cls-54{fill:url(#New_Gradient_Swatch_4-6);}.cls-55{fill:url(#New_Gradient_Swatch_2-8);}.cls-56{fill:url(#linear-gradient-14);}.cls-57{fill:url(#New_Gradient_Swatch_2-9);}.cls-58{fill:url(#linear-gradient-15);}.cls-59{fill:url(#linear-gradient-16);}.cls-60{fill:url(#linear-gradient-17);}.cls-61{fill:url(#linear-gradient-18);}.cls-62{fill:url(#linear-gradient-19);}.cls-63{fill:url(#linear-gradient-20);}.cls-64{fill:url(#linear-gradient-21);}.cls-65{fill:url(#linear-gradient-22);}.cls-66{fill:url(#linear-gradient-23);}.cls-67{fill:#6a3c20;}.cls-68{fill:url(#linear-gradient-24);}.cls-69{fill:url(#linear-gradient-25);}.cls-70{fill:url(#New_Gradient_Swatch_1);}.cls-71{fill:url(#New_Gradient_Swatch_1-2);}.cls-72{fill:url(#New_Gradient_Swatch_2-10);}.cls-73{fill:url(#New_Gradient_Swatch_2-11);}.cls-74{fill:url(#New_Gradient_Swatch_4-7);}.cls-75{fill:url(#New_Gradient_Swatch_4-8);}.cls-76{fill:url(#linear-gradient-26);}.cls-77{fill:url(#linear-gradient-27);}.cls-78{fill:url(#linear-gradient-28);}.cls-79{fill:url(#New_Gradient_Swatch_2-12);}.cls-80{fill:url(#New_Gradient_Swatch_2-13);}.cls-81{fill:url(#linear-gradient-29);}.cls-82{fill:url(#New_Gradient_Swatch_5);}.cls-83{fill:url(#New_Gradient_Swatch_5-2);}</style><linearGradient id="New_Gradient_Swatch_2" x1="135.94" y1="319.63" x2="144.6" y2="361.56" gradientUnits="userSpaceOnUse"><stop offset="0" stop-color="#aff57a"/><stop offset="1" stop-color="#54d169"/></linearGradient><linearGradient id="New_Gradient_Swatch_2-2" x1="137.63" y1="306.85" x2="149.27" y2="349.52" xlink:href="#New_Gradient_Swatch_2"/><linearGradient id="New_Gradient_Swatch_2-3" x1="137.64" y1="335.99" x2="151.37" y2="374.94" xlink:href="#New_Gradient_Swatch_2"/><linearGradient id="New_Gradient_Swatch_2-4" x1="601.02" y1="410.94" x2="609.68" y2="452.87" xlink:href="#New_Gradient_Swatch_2"/><linearGradient id="New_Gradient_Swatch_2-5" x1="602.71" y1="398.16" x2="614.35" y2="440.84" xlink:href="#New_Gradient_Swatch_2"/><linearGradient id="New_Gradient_Swatch_2-6" x1="602.73" y1="427.31" x2="616.45" y2="466.25" xlink:href="#New_Gradient_Swatch_2"/><linearGradient id="New_Gradient_Swatch_4" x1="469.19" y1="496.1" x2="434.03" y2="573.45" gradientUnits="userSpaceOnUse"><stop offset="0" stop-color="#15eded"/><stop offset="1" stop-color="#029cf5"/></linearGradient><linearGradient id="New_Gradient_Swatch_3" x1="463.73" y1="531.14" x2="448.23" y2="565.5" gradientUnits="userSpaceOnUse"><stop offset="0" stop-color="#46eeaa"/><stop offset="1" stop-color="#2cbfc7"/></linearGradient><linearGradient id="linear-gradient" x1="68.71" y1="377.48" x2="55.73" y2="331.07" gradientUnits="userSpaceOnUse"><stop offset="0" stop-color="#f8a980"/><stop offset="1" stop-color="#ffdf75"/></linearGradient><linearGradient id="linear-gradient-2" x1="33.01" y1="500.29" x2="3.46" y2="406.88" xlink:href="#linear-gradient"/><linearGradient id="linear-gradient-3" x1="48.23" y1="504.92" x2="18.68" y2="411.51" xlink:href="#linear-gradient"/><linearGradient id="linear-gradient-4" x1="12.25" y1="362.71" x2="1.51" y2="363.2" xlink:href="#linear-gradient"/><linearGradient id="New_Gradient_Swatch_3-2" x1="-3.15" y1="339.67" x2="11.84" y2="339.22" xlink:href="#New_Gradient_Swatch_3"/><linearGradient id="New_Gradient_Swatch_3-3" x1="-2.74" y1="311.68" x2="50.98" y2="434.63" xlink:href="#New_Gradient_Swatch_3"/><linearGradient id="New_Gradient_Swatch_4-2" x1="59.11" y1="310.15" x2="57.65" y2="362.97" xlink:href="#New_Gradient_Swatch_4"/><linearGradient id="New_Gradient_Swatch_3-4" x1="34.28" y1="335.16" x2="63.27" y2="370.52" xlink:href="#New_Gradient_Swatch_3"/><linearGradient id="linear-gradient-5" x1="31.49" y1="322.64" x2="23.38" y2="304.4" xlink:href="#linear-gradient"/><linearGradient id="linear-gradient-6" x1="36.49" y1="316.39" x2="36.83" y2="273.19" xlink:href="#linear-gradient"/><linearGradient id="linear-gradient-7" x1="25.31" y1="278.9" x2="36.2" y2="308.97" gradientUnits="userSpaceOnUse"><stop offset="0" stop-color="#2c4755"/><stop offset="1" stop-color="#334752"/></linearGradient><linearGradient id="New_Gradient_Swatch_8" x1="14.71" y1="283.55" x2="32.17" y2="297.73" gradientUnits="userSpaceOnUse"><stop offset="0" stop-color="#ff7c6e"/><stop offset="1" stop-color="#f5317f"/></linearGradient><linearGradient id="linear-gradient-8" x1="15.79" y1="302.67" x2="20.26" y2="331.32" xlink:href="#linear-gradient-7"/><linearGradient id="New_Gradient_Swatch_4-3" x1="428.91" y1="106.28" x2="377.87" y2="241.47" xlink:href="#New_Gradient_Swatch_4"/><linearGradient id="New_Gradient_Swatch_4-4" x1="405.36" y1="147.94" x2="385.22" y2="242.39" xlink:href="#New_Gradient_Swatch_4"/><linearGradient id="New_Gradient_Swatch_3-5" x1="341.89" y1="277.45" x2="341.51" y2="365.14" xlink:href="#New_Gradient_Swatch_3"/><linearGradient id="New_Gradient_Swatch_3-6" x1="334.48" y1="321.33" x2="354.14" y2="411.67" xlink:href="#New_Gradient_Swatch_3"/><linearGradient id="New_Gradient_Swatch_8-2" x1="319.06" y1="203.58" x2="318.68" y2="291.28" xlink:href="#New_Gradient_Swatch_8"/><linearGradient id="New_Gradient_Swatch_8-3" x1="311.65" y1="247.47" x2="331.31" y2="337.81" xlink:href="#New_Gradient_Swatch_8"/><linearGradient id="New_Gradient_Swatch_3-7" x1="331.14" y1="-3.25" x2="282.38" y2="88.22" xlink:href="#New_Gradient_Swatch_3"/><linearGradient id="New_Gradient_Swatch_3-8" x1="284.25" y1="56.55" x2="271.64" y2="194.02" xlink:href="#New_Gradient_Swatch_3"/><linearGradient id="linear-gradient-9" x1="217.65" y1="292.04" x2="259.63" y2="282.99" xlink:href="#linear-gradient"/><linearGradient id="New_Gradient_Swatch_2-7" x1="219.2" y1="272.24" x2="240.45" y2="272.24" xlink:href="#New_Gradient_Swatch_2"/><linearGradient id="linear-gradient-10" x1="226.89" y1="443.54" x2="246.12" y2="443.54" gradientUnits="userSpaceOnUse"><stop offset="0" stop-color="#334752"/><stop offset="1" stop-color="#6a6d89"/></linearGradient><linearGradient id="New_Gradient_Swatch_4-5" x1="152.67" y1="415.48" x2="293.84" y2="359.14" xlink:href="#New_Gradient_Swatch_4"/><linearGradient id="linear-gradient-11" x1="260.65" y1="260.21" x2="252.48" y2="243.64" xlink:href="#linear-gradient"/><linearGradient id="linear-gradient-12" x1="251.61" y1="244.02" x2="275.47" y2="228.78" xlink:href="#linear-gradient"/><linearGradient id="linear-gradient-13" x1="273.78" y1="464.6" x2="272.37" y2="457.14" xlink:href="#linear-gradient-10"/><linearGradient id="New_Gradient_Swatch_4-6" x1="333.15" y1="479.99" x2="216.5" y2="326.55" xlink:href="#New_Gradient_Swatch_4"/><linearGradient id="New_Gradient_Swatch_2-8" x1="239.52" y1="238.85" x2="262.71" y2="331.64" xlink:href="#New_Gradient_Swatch_2"/><linearGradient id="linear-gradient-14" x1="284.58" y1="300.48" x2="342.91" y2="292.31" xlink:href="#linear-gradient"/><linearGradient id="New_Gradient_Swatch_2-9" x1="293.1" y1="307.55" x2="265.57" y2="261.5" xlink:href="#New_Gradient_Swatch_2"/><linearGradient id="linear-gradient-15" x1="1563.4" y1="649.46" x2="1610.75" y2="639.24" gradientTransform="matrix(-0.91, -0.41, -0.41, 0.91, 2120.85, 502.5)" xlink:href="#linear-gradient"/><linearGradient id="linear-gradient-16" x1="1565.16" y1="627.13" x2="1589.11" y2="627.13" gradientTransform="matrix(-0.91, -0.41, -0.41, 0.91, 2120.85, 502.5)" gradientUnits="userSpaceOnUse"><stop offset="0" stop-color="#edf2f6"/><stop offset="1" stop-color="#c3d0d8"/></linearGradient><linearGradient id="linear-gradient-17" x1="3679.61" y1="616.9" x2="3701.28" y2="616.9" gradientTransform="matrix(-1, 0, 0, 1, 4116.33, 0)" xlink:href="#linear-gradient-10"/><linearGradient id="linear-gradient-18" x1="3595.9" y1="585.26" x2="3755.11" y2="521.72" gradientTransform="matrix(-1, 0, 0, 1, 4116.33, 0)" gradientUnits="userSpaceOnUse"><stop offset="0" stop-color="#ffe600"/><stop offset="1" stop-color="#ffc400"/></linearGradient><linearGradient id="linear-gradient-19" x1="3717.68" y1="410.14" x2="3708.46" y2="391.46" gradientTransform="matrix(-1, 0, 0, 1, 4116.33, 0)" xlink:href="#linear-gradient"/><linearGradient id="linear-gradient-20" x1="3707.48" y1="391.89" x2="3734.39" y2="374.7" gradientTransform="matrix(-1, 0, 0, 1, 4116.33, 0)" xlink:href="#linear-gradient"/><linearGradient id="linear-gradient-21" x1="3732.48" y1="640.65" x2="3730.89" y2="632.24" gradientTransform="matrix(-1, 0, 0, 1, 4116.33, 0)" xlink:href="#linear-gradient-10"/><linearGradient id="linear-gradient-22" x1="385.75" y1="556.04" x2="423.39" y2="556.04" gradientTransform="matrix(1, 0, 0, 1, 0, 0)" xlink:href="#linear-gradient-18"/><linearGradient id="linear-gradient-23" x1="383.65" y1="416.28" x2="463.75" y2="511.87" gradientTransform="matrix(1, 0, 0, 1, 0, 0)" xlink:href="#linear-gradient-16"/><linearGradient id="linear-gradient-24" x1="7225.63" y1="-5172.55" x2="7305.61" y2="-5183.76" gradientTransform="matrix(-0.14, 0.99, 0.99, 0.14, 6525.78, -5976.21)" xlink:href="#linear-gradient"/><linearGradient id="linear-gradient-25" x1="372.66" y1="413.78" x2="411.7" y2="477.05" gradientTransform="matrix(1, 0, 0, 1, 0, 0)" xlink:href="#linear-gradient-16"/><linearGradient id="New_Gradient_Swatch_1" x1="275.47" y1="536.2" x2="268.65" y2="608.39" gradientUnits="userSpaceOnUse"><stop offset="0" stop-color="#ffdf40"/><stop offset="1" stop-color="#ff8359"/></linearGradient><linearGradient id="New_Gradient_Swatch_1-2" x1="272.48" y1="570.72" x2="263.18" y2="626.48" xlink:href="#New_Gradient_Swatch_1"/><linearGradient id="New_Gradient_Swatch_2-10" x1="284.18" y1="537.54" x2="281.39" y2="612.2" xlink:href="#New_Gradient_Swatch_2"/><linearGradient id="New_Gradient_Swatch_2-11" x1="301.16" y1="536.56" x2="251.17" y2="629.92" xlink:href="#New_Gradient_Swatch_2"/><linearGradient id="New_Gradient_Swatch_4-7" x1="287.14" y1="495.58" x2="275.16" y2="574.48" xlink:href="#New_Gradient_Swatch_4"/><linearGradient id="New_Gradient_Swatch_4-8" x1="289.83" y1="521.95" x2="253.47" y2="625.22" xlink:href="#New_Gradient_Swatch_4"/><linearGradient id="linear-gradient-26" x1="3257.9" y1="462.39" x2="3249.99" y2="509.88" gradientTransform="matrix(-1, 0, 0, 1, 3387.48, 0)" gradientUnits="userSpaceOnUse"><stop offset="0" stop-color="#edf2f6"/><stop offset="1" stop-color="#e6e4eb"/></linearGradient><linearGradient id="linear-gradient-27" x1="3263.04" y1="445.62" x2="3254.65" y2="494.03" xlink:href="#linear-gradient-26"/><linearGradient id="linear-gradient-28" x1="-77.78" y1="550.89" x2="-82.31" y2="578.05" gradientTransform="translate(118.56)" xlink:href="#linear-gradient-26"/><linearGradient id="New_Gradient_Swatch_2-12" x1="38.21" y1="527.09" x2="45.08" y2="565.74" xlink:href="#New_Gradient_Swatch_2"/><linearGradient id="New_Gradient_Swatch_2-13" x1="46.27" y1="524.26" x2="37.16" y2="582.31" xlink:href="#New_Gradient_Swatch_2"/><linearGradient id="linear-gradient-29" x1="72.94" y1="519.13" x2="69.11" y2="542.14" gradientTransform="translate(118.56)" xlink:href="#linear-gradient-26"/><linearGradient id="New_Gradient_Swatch_5" x1="189.33" y1="498.96" x2="195.14" y2="531.71" gradientUnits="userSpaceOnUse"><stop offset="0" stop-color="#59c2ff"/><stop offset="1" stop-color="#1270e3"/></linearGradient><linearGradient id="New_Gradient_Swatch_5-2" x1="196.15" y1="496.56" x2="188.44" y2="545.75" xlink:href="#New_Gradient_Swatch_5"/></defs><g id="Слой_2" data-name="Слой 2"><g id="Layer_1" data-name="Layer 1"><g class="cls-1"><path class="cls-2" d="M514.62,255.6c-13.69-7.85-35.88-7.48-49.3.81L281.43,370c-13.43,8.3-13.21,21.5.48,29.35l154.37,88.46c13.69,7.84,35.88,7.47,49.31-.82L669.48,373.4c13.42-8.29,13.2-21.5-.49-29.35Z"/></g><path class="cls-3" d="M463.72,95,300.9,1.25A7.47,7.47,0,0,0,295.64.12c-3.66.51-8.32,3.42-13.72,6.25l-.05,0c-1.73,1-2.81,3.05-2.81,6.05V379.18c0,5.91,4.18,13.16,9.31,16.1L451.19,489a7.9,7.9,0,0,0,4.68,1.21c2.51-.08,5.68-1.12,9.68-3.1,3.42-1.83,5.06-3.23,5.85-4.2l.15-.18,0,0a7.65,7.65,0,0,0,1.47-4.9V111.06C473,105.15,468.85,97.91,463.72,95Z"/><path class="cls-4" d="M460.5,116.88c0-5.91-4.19-13.15-9.31-16.1L288.37,7.07c-5.13-2.95-9.31-.52-9.31,5.39V379.18c0,5.91,4.18,13.16,9.31,16.1L451.19,489c5.12,2.95,9.31.52,9.31-5.38Z"/><path class="cls-5" d="M356.53,411.27c-2-1.13-3.58-.2-3.58,2.07v7.53a7.9,7.9,0,0,0,3.58,6.18l19.26,11.09c2,1.13,3.58.2,3.58-2.07v-7.53a7.92,7.92,0,0,0-3.58-6.18Z"/><path class="cls-6" d="M288.15,33.81c-2.14-1.23-3.88-.22-3.88,2.24V357.46a8.58,8.58,0,0,0,3.88,6.71L450.5,457.6c2.13,1.23,3.88.22,3.88-2.24V134a8.6,8.6,0,0,0-3.88-6.71Z"/><path class="cls-7" d="M347.67,50.85c-1.45-.83-2.63-.14-2.63,1.53V55a5.81,5.81,0,0,0,2.63,4.56l45.62,26.25c1.44.83,2.63.15,2.63-1.52V81.66a5.87,5.87,0,0,0-2.63-4.56Z"/><path class="cls-8" d="M462.58,267.62c0,2.15,1.5,3,3.32,1.86l1.42-.87a7.81,7.81,0,0,0,3.32-5.94v-15.3c0-2.15-1.5-3-3.32-1.86l-1.42.87a7.81,7.81,0,0,0-3.32,6Z"/><path class="cls-8" d="M360.84,38.18a6.69,6.69,0,0,0-6.2.09l-.3.18c-1.69,1-1.66,2.7.06,3.69l36.57,21a6.69,6.69,0,0,0,6.2-.09l.3-.18c1.69-1.05,1.67-2.71-.05-3.7Z"/><path class="cls-8" d="M462.58,219.33c0,2.15,1.5,3,3.32,1.86l1.42-.87a7.81,7.81,0,0,0,3.32-5.95V153.12c0-2.14-1.5-3-3.32-1.85l-1.42.87a7.79,7.79,0,0,0-3.32,5.94Z"/><path class="cls-7" d="M294,30c1.9,2.92,5.06,4.24,7.05,2.94s2.07-4.71.17-7.64-5.06-4.24-7.05-2.95S292.05,27,294,30Z"/><path class="cls-7" d="M305.7,36c.49.75,1.29,1.09,1.8.75s.53-1.2.05-2-1.3-1.08-1.81-.75S305.21,35.28,305.7,36Z"/><path class="cls-7" d="M444.07,115.55c.71,1.11,1.91,1.61,2.66,1.12s.78-1.79.06-2.89-1.91-1.61-2.66-1.12S443.35,114.45,444.07,115.55Z"/><path class="cls-9" d="M167.47,387c0,8.91-12.42,16.12-27.75,16.12S112,395.94,112,387s12.42-16.11,27.75-16.11S167.47,378.13,167.47,387Z"/><path class="cls-10" d="M165.36,358.22l-12.25-1-8.73-.79-18,.57-11.42.78L113.16,359l3.21,26.37v0c0,7.35,10.25,13.3,22.9,13.3,12.26,0,22.27-5.59,22.87-12.62l0,0Z"/><path class="cls-11" d="M165.37,358.7c0,7.56-11.68,13.69-26.1,13.69s-26.1-6.13-26.1-13.69S124.85,345,139.27,345,165.37,351.14,165.37,358.7Z"/><path class="cls-12" d="M156.28,358.7c0,4.93-7.62,8.92-17,8.92s-17-4-17-8.92,7.62-8.92,17-8.92S156.28,353.77,156.28,358.7Z"/><path class="cls-13" d="M154.47,313.52a15.2,15.2,0,0,0-30.4,0h0v45.07h0s0,.07,0,.11c0,4.41,6.81,8,15.22,8s15.22-3.58,15.22-8c0,0,0-.07,0-.11h0V313.52Z"/><path class="cls-14" d="M139.27,298.64a15.21,15.21,0,0,0-15.2,14.88h0v.33a38,38,0,0,0,6.25,3c9.25,3.88,14.32,0,18.8,4a48.38,48.38,0,0,1,5.39,5.73V313.52h0A15.21,15.21,0,0,0,139.27,298.64Z"/><path class="cls-15" d="M154.49,358.7s0-.07,0-.11h0V321.78c-1,4.52-2.85,8.83-9.57,10.74C132.84,336,132.09,344,124.33,349.23l-.28.19v9.17h0s0,.07,0,.11c0,4.41,6.81,8,15.22,8S154.49,363.11,154.49,358.7Z"/><path class="cls-9" d="M632.55,478.35c0,8.9-12.42,16.11-27.75,16.11s-27.75-7.21-27.75-16.11,12.42-16.12,27.75-16.12S632.55,469.45,632.55,478.35Z"/><path class="cls-10" d="M630.45,449.53l-12.26-1-8.73-.78-18,.56-11.41.78-1.85,1.23,3.21,26.37v0c0,7.34,10.25,13.3,22.9,13.3,12.26,0,22.27-5.6,22.87-12.63l0,0Z"/><path class="cls-11" d="M630.46,450c0,7.56-11.69,13.69-26.11,13.69s-26.1-6.13-26.1-13.69,11.69-13.69,26.1-13.69S630.46,442.46,630.46,450Z"/><path class="cls-12" d="M621.36,450c0,4.93-7.61,8.92-17,8.92s-17-4-17-8.92,7.62-8.92,17-8.92S621.36,445.09,621.36,450Z"/><path class="cls-16" d="M619.56,404.84a15.21,15.21,0,0,0-30.41,0h0v45.07h0s0,.07,0,.11c0,4.41,6.82,8,15.22,8s15.22-3.57,15.22-8c0,0,0-.08,0-.11h0V404.84Z"/><path class="cls-17" d="M604.35,390a15.21,15.21,0,0,0-15.2,14.88h0v.32a37.94,37.94,0,0,0,6.25,3c9.25,3.87,14.33,0,18.8,4a47.47,47.47,0,0,1,5.39,5.72V404.84h0A15.22,15.22,0,0,0,604.35,390Z"/><path class="cls-18" d="M619.57,450s0-.08,0-.11h0V413.09c-1,4.53-2.85,8.83-9.57,10.74-12.08,3.44-12.83,11.49-20.59,16.72l-.28.18v9.18h0s0,.07,0,.11c0,4.41,6.82,8,15.22,8S619.57,454.43,619.57,450Z"/><path class="cls-9" d="M540.29,538.46l-33.83-19.38c-.19-.11-.39-.21-.6-.31L473.15,500a11.64,11.64,0,0,0-10.81.18L422.06,525.1c-2.95,1.81-2.9,4.7.1,6.42L456,550.91l.61.31L489.3,570a11.65,11.65,0,0,0,10.8-.18l40.29-24.89C543.33,543.07,543.29,540.18,540.29,538.46Z"/><path class="cls-3" d="M500.32,511.86a7.39,7.39,0,0,0-3.32-5.75l-68.79-39.59a2.6,2.6,0,0,0-2-.37,14.33,14.33,0,0,0-4.28,2.19h0a2.34,2.34,0,0,0-.92,2.1v53.81a7.37,7.37,0,0,0,3.32,5.75l68.79,39.59a2.88,2.88,0,0,0,1.66.44,4.48,4.48,0,0,0,2.19-.7c1.72-1,2.49-1.4,2.88-2a2.89,2.89,0,0,0,.45-1.66Z"/><path class="cls-19" d="M496.47,513.87a7.36,7.36,0,0,0-3.33-5.75l-68.79-39.59c-1.82-1-3.32-.19-3.32,1.92v53.81a7.37,7.37,0,0,0,3.32,5.75l68.79,39.59c1.83,1,3.33.19,3.33-1.92Z"/><path class="cls-20" d="M467.9,535.48c3.89,6,10.35,8.69,14.43,6s4.24-9.65.34-15.64-10.34-8.69-14.43-6S464,529.5,467.9,535.48Z"/><path class="cls-21" d="M496.47,567.68V559l-15.31-8.62-14.39-24.62-7.46,5.86-15.13-30S428.1,511.62,421,515.92v8.34a7.37,7.37,0,0,0,3.32,5.75l68.79,39.59C495,570.65,496.47,569.79,496.47,567.68Z"/><g class="cls-1"><path class="cls-2" d="M41.44,513.22l17.33-10.67c2.16-1.33,2.18-3.41.13-4.74L27.18,479.55a8.87,8.87,0,0,0-8.2.13L1.65,490.34c-2.16,1.33-2.19,3.42-.14,4.73l31.73,18.26A8.87,8.87,0,0,0,41.44,513.22Z"/></g><path class="cls-22" d="M70.69,337.33c-1.18,3.86-3.8,13-6.64,18.5-2.68,5.2-6.75,11.06-8.15,10.95-1.17-.2-.29-.61-1.58-.41s-6.55,4.28-5.26,5.26a.59.59,0,0,0,0,.14,15.13,15.13,0,0,0,6.62,3.56,1.55,1.55,0,0,0,.61.13,1.61,1.61,0,0,0,1-.36c1.69-.82,11.53-6.33,15.36-25.12a151.08,151.08,0,0,0,2.12-15.56C74.77,333.25,71.86,333.47,70.69,337.33Z"/><path class="cls-23" d="M17.42,441.67c.07.3.89,9-1.65,25.14s-2.61,16.75-2.9,19.89c-.14,2.05,3.58,4.21,6.71,5.22s9.68,1.62,12.59-1.4a2.25,2.25,0,0,0-.56-3.13s-2.87.3-4.15.27c-1-.06-4.22-.27-3.85-1.78s3.64-19.25,4.42-28.6,1.29-19.13,1.29-19.13l-2-4.65L15.22,432Z"/><path class="cls-24" d="M35.83,488a9.61,9.61,0,0,0-4.42-.79s-1.12.17.28,1.07c.8.33,1.18,3.06-3.38,3.75-3.88.61-4.95.47-7-.07l-.12,0c-7.76-2.23-7.57-7.64-8.43-6.71A6,6,0,0,0,10.63,490a8.36,8.36,0,0,0,.78,3.88A24.77,24.77,0,0,1,12.87,499v2.66c0,.63.41.87,1,.87s1.22-.24,1.22-.87v-3.44a10,10,0,0,1,.8-3.1s.74-1.54,1.73-.05,2.46,3.86,5.84,3.88,5.68-1.18,9.62-4S37.77,488.93,35.83,488Z"/><path class="cls-25" d="M32.64,446.3c.07.3.89,9-1.64,25.14s-2.61,16.75-2.91,19.88c-.14,2.06,3.58,4.22,6.71,5.22s9.68,1.63,12.59-1.39a2.26,2.26,0,0,0-.56-3.14s-2.87.3-4.15.27c-1,0-4.21-.27-3.85-1.78s3.64-19.25,4.42-28.59,1.29-19.14,1.29-19.14l-2-4.64-12.08-1.51Z"/><path class="cls-24" d="M51.06,492.57a9.59,9.59,0,0,0-4.43-.78s-1.12.17.28,1.06c.8.34,1.18,3.06-3.38,3.75-3.89.61-5,.48-7-.06l-.12,0c-7.76-2.23-7.57-7.64-8.43-6.71a6.09,6.09,0,0,0-2.16,4.82,8.36,8.36,0,0,0,.78,3.88,24.93,24.93,0,0,1,1.46,5.08v2.67c0,.62.41.86,1,.86s1.22-.24,1.22-.86v-3.45a10.35,10.35,0,0,1,.79-3.09s.75-1.55,1.74-.06,2.46,3.86,5.84,3.88,5.68-1.17,9.62-4S53,493.55,51.06,492.57Z"/><path class="cls-26" d="M17.57,363.54c0,3.67,7.66,6.66-6.3,6.66-3.48,0-5.75-3.05-6.46-6.66-2.46-12.59,3-6.66,6.46-6.66A6.49,6.49,0,0,1,17.57,363.54Z"/><path class="cls-27" d="M19,345.5c0-1-3.88-14.77-3.88-15s-1.42-3.23-2.17-4.81c.67-3.62,8.5-11.45-1.38-8C7.91,319,6.75,320.91,5.71,325a13.21,13.21,0,0,0-.38,5.11,65.86,65.86,0,0,1-1.12,16c-1.42,6.94-2.31,12.53.3,14.1s5.89,1.42,8.28,1.19,8-2.61,8-2.61S19,346.55,19,345.5Z"/><path class="cls-28" d="M45.84,372.81c-2.53-4.1-2.53-4-2.53-6.49a163.17,163.17,0,0,1,1-17.09c.82-6.71,3.13-8.65,2.68-13.58s0-9.25-8.88-13c-3.95-1-13.86-5.28-17.4-5.61a11.68,11.68,0,0,0-3-.4c-4.44,0-8.14,2.44-9,5.69-2,5.17-.21,12.49.32,21.28.56,9.23,4.65,21.49,4.87,22.5s.79,2.07-.17,3.18c-4.19,4.93-5.2,11.92-5.2,11.92s0,.08,0,.21a23.1,23.1,0,0,0-.32,3.77c0,.7,0,1.4.1,2.08,0,2.35.87,4.32,3.08,11.57,2.58,12.42.84,40.17.84,40.17,0,4.24,8,7.67,17.8,7.67S47.78,443.2,47.78,439c0,0,.23-40,.45-45.71S48.38,376.91,45.84,372.81Z"/><path class="cls-24" d="M66.67,354.88a2.68,2.68,0,0,1-3.47,1.52l-24.79-9.66a2.7,2.7,0,0,1-1.52-3.48l13.46-34.51a2.69,2.69,0,0,1,3.48-1.53l24.78,9.66a2.71,2.71,0,0,1,1.52,3.49Z"/><polygon class="cls-29" points="64.17 353.9 64.17 353.9 64.16 353.9 39.39 344.23 52.85 309.72 77.63 319.39 64.17 353.9 64.17 353.9 64.17 353.9"/><path class="cls-30" d="M53.84,362.68s-1.45-3.16-3.78-8c-2.41-5-4.58-10.06-3.83-13.25A35.63,35.63,0,0,0,47,335c0-.33,0-.67,0-1,0-5.21-3.28-9.44-7.31-9.44-3.86,0-7,3.87-7.29,8.76,0,0,0,0,0,0-.74,7.05,4.18,18.41,5.86,21.28s5.52,11.64,6.3,13.47,3.29,4.18,5.08,4.55,4.66-3.74,5.71-5.22C56.06,366.43,53.84,362.68,53.84,362.68Z"/><path class="cls-31" d="M34.86,312.71l-.5-.76L32,309.69,27,309.41l-3.89.86a8.34,8.34,0,0,1,.28,3.75,15.12,15.12,0,0,1-.88,4.22,1.33,1.33,0,0,0-.26.55c-.26,1.39,1.91,3,4.86,3.56s5.56-.11,5.83-1.5a1.41,1.41,0,0,0,0-.41c0-.43.08-1.1.12-2.19A11.7,11.7,0,0,1,34.86,312.71Z"/><path class="cls-32" d="M48.34,287.61c.14,1.39.19,6.89.19,8.42,0,8.65-2.48,15.14-6.79,16.32-13.69,3.61-17-3.49-17-12.15s15.75-19.84,18.62-19.84C45.71,280.36,47.72,281.09,48.34,287.61Z"/><path class="cls-33" d="M48.75,285c0,.78,0,3.34-.83,3.32-3.4-.09-6,1.49-5,5.65.7,2.85-.13,7.95-3.54,15.46-1,2.12,1.27,5.52-.22,5.52-.52,0-1.74-.57-1.76-3.65,0-4,2-7,2.2-8,2.23-8.14-4-7.11-4.92-5.7-1.26,2-3.47,4.51.19,8,3,2.91-5.3,7.07-7.67,6.42-6.36-1.76-6.49,1.37-7.61,2.79C13.88,322.21,15,290.69,15,285s6.33-9.66,15.67-9.66S48.75,279.35,48.75,285Z"/><path class="cls-34" d="M26.82,287.86c0,4.18-3.05,7.57-6.81,7.57S13.2,292,13.2,287.86s3.05-7.58,6.81-7.58S26.82,283.67,26.82,287.86Z"/><path class="cls-35" d="M23.31,300.65c1.12-9.1,1.17-10.55.92-12h0c-.38-3.08-2.68-5.46-5.49-5.46s-4.28,2.49-5.47,5.37h0s-6.43,15-5.09,29.77,1.12,15.6,8.5,28.5c3,6.2,3.29,6.79,3.14,9.18s1.79,3.66,2.16-1.27a47.48,47.48,0,0,0-2.61-21A28.26,28.26,0,0,1,19,317.81C20.11,313.33,21.67,309.45,23.31,300.65Z"/><g class="cls-1"><path class="cls-2" d="M405.47,255.61c-2.56-1.47-4.65-.26-4.65,2.7V378.18a10.31,10.31,0,0,0,4.65,8.05l42.62,24.52c2.56,1.48,4.66.27,4.66-2.69V288.19a10.31,10.31,0,0,0-4.66-8.05Z"/></g><path class="cls-3" d="M439.88,285.85l-42.61-24.53A3.24,3.24,0,0,0,394,261a38,38,0,0,0-6.63,3.2,3.22,3.22,0,0,0-1.43,3V387.13a10.3,10.3,0,0,0,4.65,8.05l42.62,24.53a4.31,4.31,0,0,0,1.87.61c.34.05,2.07.16,5.13-1.7,1.61-1,2.44-1.53,2.85-1.77a2.07,2.07,0,0,0,.32-.19l0,0h0a3.4,3.4,0,0,0,1.16-2.86V293.9A10.26,10.26,0,0,0,439.88,285.85Z"/><path class="cls-11" d="M390.55,264.57c-2.56-1.48-4.65-.27-4.65,2.69V387.13a10.3,10.3,0,0,0,4.65,8.05l42.62,24.53c2.56,1.47,4.65.26,4.65-2.7V297.14a10.3,10.3,0,0,0-4.65-8.05Z"/><polygon class="cls-36" points="399.18 299.75 418.65 310.96 418.65 301.33 399.18 290.12 399.18 299.75"/><polygon class="cls-36" points="430.66 343.41 430.66 333.78 397.16 314.5 397.16 324.14 430.66 343.41"/><polygon class="cls-36" points="421.34 341.92 391.49 324.75 391.49 334.38 421.34 351.55 421.34 341.92"/><polygon class="cls-36" points="397.16 351.14 430.66 370.42 430.66 360.79 397.16 341.51 397.16 351.14"/><polygon class="cls-36" points="391.49 361.38 430.66 383.93 430.66 374.3 391.49 351.75 391.49 361.38"/><polygon class="cls-36" points="391.49 365.26 391.49 374.89 410.81 386.01 410.81 376.38 391.49 365.26"/><g class="cls-1"><path class="cls-2" d="M308.93,81c-2.56-1.47-4.66-.26-4.66,2.69V203.59a10.33,10.33,0,0,0,4.66,8.06l42.62,24.52c2.56,1.48,4.65.26,4.65-2.69V113.61a10.28,10.28,0,0,0-4.65-8Z"/></g><path class="cls-3" d="M343.34,111.26,300.73,86.74a3.26,3.26,0,0,0-3.32-.3,38.12,38.12,0,0,0-6.62,3.2,3.21,3.21,0,0,0-1.44,3V212.55a10.32,10.32,0,0,0,4.66,8l42.62,24.53a4.27,4.27,0,0,0,1.87.61c.34,0,2.07.16,5.12-1.71l2.85-1.76a2.46,2.46,0,0,0,.32-.19l0,0h0a3.4,3.4,0,0,0,1.17-2.86V119.31A10.32,10.32,0,0,0,343.34,111.26Z"/><path class="cls-11" d="M294,90c-2.56-1.47-4.66-.26-4.66,2.69V212.55a10.32,10.32,0,0,0,4.66,8l42.62,24.53c2.56,1.46,4.65.26,4.65-2.7V122.56a10.3,10.3,0,0,0-4.65-8Z"/><polygon class="cls-36" points="302.63 125.17 322.11 136.38 322.11 126.75 302.63 115.54 302.63 125.17"/><polygon class="cls-36" points="334.12 168.83 334.12 159.2 300.62 139.92 300.62 149.55 334.12 168.83"/><polygon class="cls-36" points="324.79 167.34 294.95 150.16 294.95 159.79 324.79 176.97 324.79 167.34"/><polygon class="cls-36" points="300.62 176.56 334.12 195.84 334.12 186.21 300.62 166.93 300.62 176.56"/><polygon class="cls-36" points="294.95 186.8 334.12 209.34 334.12 199.71 294.95 177.17 294.95 186.8"/><polygon class="cls-36" points="294.95 190.67 294.95 200.31 314.27 211.43 314.27 201.79 294.95 190.67"/><path class="cls-9" d="M450.11,229.85a2.61,2.61,0,0,0,.27.06,2.17,2.17,0,0,0,.36,0h.18a2,2,0,0,0,.32-.11,2.14,2.14,0,0,0,1.13-2.16V163.54a7.14,7.14,0,0,0-3.22-5.58l-72.52-41.73a2.07,2.07,0,0,0-2.55,0,1.37,1.37,0,0,0-.17.17,1.4,1.4,0,0,0-.15.24,1.43,1.43,0,0,0-.12.21,1.79,1.79,0,0,0-.11.35,1.66,1.66,0,0,0-.06.21,3.55,3.55,0,0,0-.06.67v64.09a7.14,7.14,0,0,0,3.22,5.57l39.64,22.82h0l20,11.5v0l6.28,3.62.23.13,6.39,3.68a4.33,4.33,0,0,0,.63.29A2.17,2.17,0,0,0,450.11,229.85Z"/><path class="cls-37" d="M440.31,163.48,367.8,121.74a2.58,2.58,0,0,0-1.86-.38c-.25,0-.7.29-3.18,1.34a12.06,12.06,0,0,0-3.2,1.79,2.38,2.38,0,0,0-.78,2v64.08a7.12,7.12,0,0,0,3.23,5.58l61,35.11,5.15,2.95,6.38,3.67a2.28,2.28,0,0,0,2.23.24c.39-.1,1-.31,2.09-.7a10.14,10.14,0,0,0,3.83-2.22,2.31,2.31,0,0,0,.87-2V169.05A7.12,7.12,0,0,0,440.31,163.48Z"/><path class="cls-38" d="M435.49,238.21l.26.06a2.23,2.23,0,0,0,.37,0h.17a1.51,1.51,0,0,0,.32-.11,2.14,2.14,0,0,0,1.14-2.15V171.9a7.12,7.12,0,0,0-3.23-5.58L362,124.58a2.1,2.1,0,0,0-2.56,0,1.37,1.37,0,0,0-.16.18,1.88,1.88,0,0,0-.16.23,2.12,2.12,0,0,0-.11.21,3,3,0,0,0-.12.36l-.06.2a4.78,4.78,0,0,0-.06.68v64.08a7.12,7.12,0,0,0,3.23,5.58l39.64,22.81v0l20,11.5v0L427.9,234l.24.14,6.38,3.67a3.33,3.33,0,0,0,.64.3Z"/><path class="cls-20" d="M407.78,196.23c5.44,8.38,14.5,12.16,20.21,8.45s5.93-13.52.48-21.9-14.49-12.17-20.21-8.46S402.33,187.84,407.78,196.23Z"/><path class="cls-36" d="M433.36,221.51,413.21,187l-10.44,8.2-21.19-42.07s-12.36,7.75-22.8,14.22v23.14a7.12,7.12,0,0,0,3.23,5.58l39.64,22.81v0l20,11.5v0L427.9,234l.24.14,6.38,3.67a3.33,3.33,0,0,0,.64.3l.33.07.26.06a2.23,2.23,0,0,0,.37,0h.17a1.51,1.51,0,0,0,.32-.11,2.14,2.14,0,0,0,1.14-2.15V224Z"/><path class="cls-9" d="M372.6,376.41l.17,0a.89.89,0,0,0,.23,0h.11l.21-.06A1.38,1.38,0,0,0,374,375V334.42a4.51,4.51,0,0,0-2-3.53l-45.92-26.43a1.32,1.32,0,0,0-1.62,0l-.11.11-.09.15a.57.57,0,0,0-.08.13,1.55,1.55,0,0,0-.07.23s0,.08,0,.13a2.86,2.86,0,0,0,0,.43v40.58a4.51,4.51,0,0,0,2.05,3.53l25.1,14.45h0l12.64,7.28h0l4,2.29.15.08,4,2.33a2.87,2.87,0,0,0,.4.19Z"/><path class="cls-39" d="M366.4,334.38,320.47,308a1.61,1.61,0,0,0-1.17-.24,19,19,0,0,0-2,.84,7.53,7.53,0,0,0-2,1.14,1.51,1.51,0,0,0-.49,1.24v40.58a4.49,4.49,0,0,0,2.05,3.53l38.61,22.24,3.26,1.87,4.05,2.32a1.42,1.42,0,0,0,1.41.15c.24-.06.65-.19,1.33-.44a6.43,6.43,0,0,0,2.42-1.41,1.46,1.46,0,0,0,.55-1.28V337.91A4.51,4.51,0,0,0,366.4,334.38Z"/><path class="cls-40" d="M363.34,381.71l.17,0a.89.89,0,0,0,.23,0h.11l.2-.07a1.37,1.37,0,0,0,.72-1.37V339.71a4.51,4.51,0,0,0-2-3.53l-45.92-26.43a1.32,1.32,0,0,0-1.62,0l-.11.11L315,310a1,1,0,0,0-.08.14,1.14,1.14,0,0,0-.07.22l0,.13a2.74,2.74,0,0,0,0,.43v40.58a4.49,4.49,0,0,0,2.05,3.53l25.1,14.45h0l12.64,7.28h0l4,2.29.14.09,4.05,2.32a2.87,2.87,0,0,0,.4.19Z"/><path class="cls-9" d="M349.77,302.55l.17,0a.89.89,0,0,0,.23,0h.11a.86.86,0,0,0,.21-.07,1.35,1.35,0,0,0,.71-1.36V260.56a4.51,4.51,0,0,0-2-3.54l-45.92-26.43a1.32,1.32,0,0,0-1.62,0,1.14,1.14,0,0,0-.11.11l-.09.15a.57.57,0,0,0-.08.13,1.87,1.87,0,0,0-.07.22s0,.09,0,.14a2.77,2.77,0,0,0,0,.42v40.59a4.51,4.51,0,0,0,2,3.53l25.1,14.45h0L341,297.63h0l4,2.29.15.08,4,2.33a2.5,2.5,0,0,0,.41.19Z"/><path class="cls-41" d="M343.57,260.52l-45.93-26.43a1.62,1.62,0,0,0-1.17-.25,21.4,21.4,0,0,0-2,.85,7.31,7.31,0,0,0-2,1.13,1.52,1.52,0,0,0-.5,1.25v40.58a4.51,4.51,0,0,0,2.05,3.53l38.61,22.24,3.27,1.86,4,2.33a1.42,1.42,0,0,0,1.41.15c.24-.06.65-.19,1.33-.44a6.43,6.43,0,0,0,2.42-1.41,1.47,1.47,0,0,0,.55-1.28V264.05A4.51,4.51,0,0,0,343.57,260.52Z"/><path class="cls-42" d="M340.51,307.84l.17,0a.87.87,0,0,0,.23,0H341a.68.68,0,0,0,.2-.07,1.34,1.34,0,0,0,.72-1.36V265.85a4.51,4.51,0,0,0-2-3.53L294,235.89a1.32,1.32,0,0,0-1.62,0l-.11.11-.09.15-.08.13a1.55,1.55,0,0,0-.07.23s0,.08,0,.13a2.74,2.74,0,0,0,0,.43v40.58a4.51,4.51,0,0,0,2.05,3.53l25.1,14.45h0l12.64,7.28h0l4,2.29.15.08,4,2.33a2.87,2.87,0,0,0,.4.19Z"/><path class="cls-43" d="M323.62,68,251.11,26.24a2.63,2.63,0,0,0-1.86-.38c-.25,0-.7.29-3.17,1.34A12,12,0,0,0,242.87,29a2.38,2.38,0,0,0-.78,2V95a7.12,7.12,0,0,0,3.23,5.58l48.6,28,11.05,31,6.48-3.3V138.67l6.38,3.67a2.3,2.3,0,0,0,2.24.24c.38-.1,1-.3,2.08-.69a10.28,10.28,0,0,0,3.84-2.23,2.32,2.32,0,0,0,.86-2V73.55A7.12,7.12,0,0,0,323.62,68Z"/><path class="cls-44" d="M317.83,70.82,245.32,29.09c-1.78-1-3.23-.19-3.23,1.86V95a7.12,7.12,0,0,0,3.23,5.58L285,123.42l20,36.3v-24.8l12.89,7.42c1.78,1,3.23.19,3.23-1.86V76.4A7.12,7.12,0,0,0,317.83,70.82Z"/><path class="cls-45" d="M270.25,89.52,262.63,80a4.05,4.05,0,0,1-.55-.83,1.72,1.72,0,0,1-.16-.73v-.45a.83.83,0,0,1,.16-.56.93.93,0,0,1,.55-.28l7.62-1.64h.24a.61.61,0,0,1,.34.06,1,1,0,0,1,.37.34.8.8,0,0,1,.14.46v1.07a.47.47,0,0,1-.13.39.82.82,0,0,1-.43.17l-6.59,1.4,6.59,8.26a4.36,4.36,0,0,1,.44.65,1.13,1.13,0,0,1,.12.51v1.07c0,.17,0,.28-.14.32a.39.39,0,0,1-.37,0A2.57,2.57,0,0,1,270.25,89.52Z"/><path class="cls-45" d="M273.79,95.53a.83.83,0,0,1-.15-.44.75.75,0,0,1,.07-.28l8.35-16.89a.44.44,0,0,1,.64-.1l.9.48a.92.92,0,0,1,.34.34.83.83,0,0,1,.15.44.67.67,0,0,1-.07.27l-8.38,16.83a.32.32,0,0,1-.21.2.55.55,0,0,1-.42-.08l-.88-.44A.89.89,0,0,1,273.79,95.53Z"/><path class="cls-45" d="M286.51,98a.86.86,0,0,1-.15-.46v-1a.52.52,0,0,1,.12-.38,1.09,1.09,0,0,1,.44-.18l6.59-1.29-6.59-8.17a3.71,3.71,0,0,1-.43-.62,1.07,1.07,0,0,1-.13-.53v-1a.31.31,0,0,1,.13-.3.41.41,0,0,1,.36.05,1.4,1.4,0,0,1,.35.3l.26.28,7.62,9.48a4.05,4.05,0,0,1,.54.83,1.66,1.66,0,0,1,.16.71V96a.76.76,0,0,1-.16.53.8.8,0,0,1-.54.24l-7.62,1.54a1,1,0,0,1-.61,0A.89.89,0,0,1,286.51,98Z"/><g class="cls-1"><path class="cls-2" d="M236.84,428.38a9.7,9.7,0,0,0-9,.13l-19.06,11.72c-2.45,1.51-2.42,3.93.08,5.37l62.29,35.84a9.75,9.75,0,0,0,9-.13l19-11.72c2.46-1.51,2.42-3.93-.08-5.37Z"/></g><path class="cls-46" d="M221.34,287.31l23.81-1.05s.7-3.49,3.49-3.23,10.9-.09,10.9-.09,4.89-.78-2.44,2.45-8.55,4.19-10.82,3.49c-1.65.08-21.71,6.45-23.46,5.58s-1.39-3.14-1.39-3.14Z"/><path class="cls-47" d="M240.34,249.93h-3.87s-7,2.1-10.94,14.25-6,17.9-6.07,20.55-1.1,7.84,1.77,9.28,5.08-.23,6.52-1.88.77-3.43,2.09-6.85,2.1-8.51,4.64-10.27,6-6.41,6-6.41Z"/><path class="cls-48" d="M228.31,439.69l-1.05.77a30.06,30.06,0,0,0-.19,3.94c.1,1.46-.57,3,.19,3.26s2.76.86,4.18.26,1.23-2.14,2.09-2.06,5.89-1.2,9.3-2.91,4.47-4.21,1.71-4-8.83,1.19-11.2,1.63c-.51.1-.6-.27-.6-.27l-1-.16-1.27-.18Z"/><path class="cls-49" d="M232.77,440.46c0,.76-1.23,1.37-2.75,1.37s-2.76-.61-2.76-1.37,1.24-1.37,2.76-1.37S232.77,439.7,232.77,440.46Z"/><path class="cls-50" d="M237.35,325.16c-6,1.15-4.33,4.45-4.33,7.54s-1.78,19.46-4,40.83c-2,19.66-1,28.24-1.25,43.31-.19,12-1.05,18.18-1.4,20.22a2.62,2.62,0,0,0-.14.79c0,1.7,1.75,3.09,3.91,3.09s3.92-1.39,3.92-3.09c0,0,2.3-30.06,2.7-33.26,2-15.93,7.39-35,9.41-42.1s10.68-31.87,10.68-31.87S250.65,322.61,237.35,325.16Z"/><path class="cls-51" d="M247.73,258.09c.46-.87,3.65-7.79,4.16-12.34s.28-7.08.58-7.19,3.13-.76,3.13-.76l5.37,2.86,2.45,1.08s1.52,3.88-.5,5.78c-4.82,4.3-3.79,14.74-.57,14.48.3,0,0,3.43-3.17,2.3a48.33,48.33,0,0,1-7.83-3.58C250.79,260.26,247.73,258.09,247.73,258.09Z"/><path class="cls-52" d="M265.42,240.32a1.5,1.5,0,0,0,1.08-1.26c0-.75-2.43-5.06-3.56-6-.1-.82-.22-1.83-.33-2.69-.24-1.81-.69-2.93-2.15-2.93a31.14,31.14,0,0,0-4.71.75S252,230.29,252,230.4s-4.71,10.6-4.71,10.95,6.25,8.12,16.14,8.15a2.25,2.25,0,0,0,2.11-3,11.28,11.28,0,0,1-.2-1.88c0-1.1.62-1.57.34-2.12s-.68-.89-.47-1.43Z"/><path class="cls-53" d="M262.88,456.1l-1.3,1.07a46.27,46.27,0,0,0-.24,5.45c.12,2-.71,4.16.24,4.52s3.44,1.18,5.22.35,1.54-3,2.61-2.85,7.36-1.66,11.63-4,5.58-5.82,2.14-5.58-11,1.66-14,2.25c-.64.15-.75-.36-.75-.36l-1.27-.22-1.58-.25Z"/><path class="cls-49" d="M268.46,457.17c0,1-1.54,1.9-3.44,1.9s-3.44-.86-3.44-1.9,1.54-1.9,3.44-1.9S268.46,456.12,268.46,457.17Z"/><path class="cls-54" d="M271.6,328.91l-13.85,2.25c-.88-5.76-4.76-10.09-9.42-10.09-5.31,0-9.61,5.63-9.61,12.58a15.46,15.46,0,0,0,1.46,6.64c2.53,6.76,12.85,14.93,14,25.4,1.19,11.16,4.63,15.91,5.1,22.43s.95,36.56,1.54,46.17.92,21,.92,21a3.24,3.24,0,0,0,6.41,0s3.47-48.8,3.71-59.72.12-11.63.24-25.28C272.2,354.46,271.6,328.91,271.6,328.91Z"/><path class="cls-55" d="M271.71,295.11c2.43-9.94,3.86-13.81,3.86-13.81L274.14,263a42.41,42.41,0,0,0-11.93-4.52c-4.75-.89-7.21-1.33-11.71-3.65-1.12-.58-3.29-3.64-8.67-5.13,0,0-5.22-1.58-7.35,2-2.78,4.74-1.32,10.05.11,22s1.55,25.74,0,35.9c-.89,5.91-2.39,12.92-1.64,17.12a.66.66,0,0,0,0,.14,3.76,3.76,0,0,0,.34,1.16,3.52,3.52,0,0,0,1.74,2.1c3.21,2.6,9.86,4.42,17.82,4.42,7.52,0,13.76-1.44,17.11-3.7,1.5-.52,3.14-2.27,3.08-7.32C272.92,314.77,269.28,305.05,271.71,295.11Z"/><path class="cls-2" d="M261.53,228.28c.68-3.61-.09-11-.09-11a1.08,1.08,0,0,0-1.13-1.05c-9.07-.33-18.21,11.14-20,13.49a6.17,6.17,0,0,0-1.56,4.06,5.65,5.65,0,0,0,.16,1.37s0,.08,0,.12c.63,4.43,7.61,11.67,7.61,11.67h.06a4.26,4.26,0,0,0,3,1.22,4,4,0,0,0,4-3.2l0-.05a26.44,26.44,0,0,0,.55-8c-.08-1.46,4.48-2.86,4.6-2.88l.06,0a2.88,2.88,0,0,0,1.8-1.77v0s0,0,0,0a2.52,2.52,0,0,0,.1-.46C260.94,230.79,260.94,230.6,261.53,228.28Z"/><path class="cls-56" d="M288.72,295.44l30.16-1.33s.88-4.41,4.41-4.08,13.81-.11,13.81-.11,6.19-1-3.09,3.09-10.83,5.3-13.7,4.42c-2.1.11-27.5,8.17-29.71,7.07s-1.77-4-1.77-4Z"/><path class="cls-57" d="M292.45,293.86c-.3-1.54-2.9-3.69-8.37-16.37-3.23-7.48-5.79-11-7.37-12.68a8.2,8.2,0,0,0-6.27-2.84,7.84,7.84,0,0,0-8.06,7.62,7.12,7.12,0,0,0,.16,1.54c-.13,5.57,16.49,21.69,19,24.67s3.25,6,6.46,8.56c3.51,2.73,4.48,1.19,3.79-2C291.11,299.33,293.19,297.67,292.45,293.86Z"/><g class="cls-1"><path class="cls-2" d="M425.5,599.8a11,11,0,0,1,10.17.15l21.49,13.22c2.77,1.7,2.73,4.43-.09,6.05l-70.25,40.43a11,11,0,0,1-10.16-.15l-21.5-13.22c-2.77-1.71-2.73-4.43.09-6Z"/></g><path class="cls-58" d="M427.07,446.16l-24-12.1s.9-3.91-2.09-4.94S389.81,424,389.81,424s-4.66-3.07,1.37,3.64,6.86,8.26,9.51,8.59c1.67.86,19.35,16.7,21.54,16.61s2.89-2.58,2.89-2.58Z"/><path class="cls-59" d="M424.84,398.93l4,1.79s6.18,5.38,4.65,19.72-2.16,21.16-3.27,23.94-2.5,8.57-6.12,8.72-5.12-2.58-5.83-5,.79-3.88,1-8,1.78-9.72,0-12.72-3.16-9.34-3.16-9.34Z"/><path class="cls-60" d="M435.13,612.55l1.18.88a32.52,32.52,0,0,1,.21,4.44c-.11,1.65.64,3.39-.21,3.68s-3.11,1-4.71.29-1.4-2.42-2.36-2.32-6.64-1.36-10.49-3.29-5-4.74-1.93-4.55,10,1.36,12.63,1.84c.58.12.68-.29.68-.29l1.15-.18,1.42-.21Z"/><path class="cls-49" d="M430.1,613.43c0,.85,1.39,1.54,3.1,1.54s3.11-.69,3.11-1.54-1.39-1.55-3.11-1.55S430.1,612.57,430.1,613.43Z"/><path class="cls-61" d="M424.93,483.4c6.76,1.3,4.88,5,4.88,8.5s2,22,4.49,46c2.28,22.18,1.13,31.85,1.4,48.85.22,13.52,1.19,20.5,1.57,22.8a2.76,2.76,0,0,1,.17.9c0,1.92-2,3.47-4.42,3.47s-4.41-1.55-4.41-3.47c0,0-2.59-33.91-3.05-37.52-2.27-18-8.33-39.45-10.61-47.48s-12-35.93-12-35.93S409.93,480.52,424.93,483.4Z"/><path class="cls-62" d="M413.22,407.76c-.52-1-4.12-8.79-4.69-13.92s-.31-8-.66-8.1-3.51-.87-3.51-.87l-6.06,3.23-2.78,1.21s-1.7,4.39.58,6.52c5.43,4.85,4.27,16.62.64,16.34-.34,0,0,3.86,3.58,2.59a54.86,54.86,0,0,0,8.82-4C409.78,410.2,413.22,407.76,413.22,407.76Z"/><path class="cls-63" d="M393.28,387.72a1.71,1.71,0,0,1-1.22-1.43c0-.84,2.73-5.7,4-6.78.1-.92.24-2.05.37-3,.27-2,.77-3.3,2.42-3.3a35.49,35.49,0,0,1,5.31.84s4.27,2.39,4.27,2.5,5.31,12,5.31,12.35-7,9.16-18.2,9.2a2.54,2.54,0,0,1-2.53-2.54,2.59,2.59,0,0,1,.16-.88,14.35,14.35,0,0,0,.22-2.12c0-1.24-.7-1.77-.39-2.39s.77-1,.54-1.62Z"/><path class="cls-64" d="M396.13,631.06l1.48,1.21a49.64,49.64,0,0,1,.26,6.16c-.13,2.27.8,4.68-.26,5.08s-3.89,1.34-5.89.4-1.74-3.34-3-3.21-8.3-1.87-13.11-4.55-6.3-6.56-2.41-6.29,12.44,1.87,15.79,2.54c.72.17.84-.41.84-.41l1.43-.25,1.79-.27Z"/><path class="cls-49" d="M389.84,632.27c0,1.18,1.74,2.14,3.88,2.14s3.89-1,3.89-2.14-1.74-2.14-3.89-2.14S389.84,631.09,389.84,632.27Z"/><path class="cls-65" d="M386.31,487.63l15.61,2.53c1-6.49,5.37-11.38,10.63-11.38,6,0,10.84,6.35,10.84,14.19a17.42,17.42,0,0,1-1.65,7.49c-2.86,7.62-14.49,16.84-15.75,28.65-1.34,12.58-5.22,17.93-5.76,25.29s-1.07,41.23-1.74,52.07-1,23.72-1,23.72a3.65,3.65,0,0,1-7.22,0s-3.92-55-4.18-67.35-.14-13.12-.27-28.51C385.62,516.44,386.31,487.63,386.31,487.63Z"/><path class="cls-66" d="M386.18,449.51c-2.74-11.21-4.36-15.58-4.36-15.58l1.62-20.68a47.51,47.51,0,0,1,13.45-5.1c5.36-1,8.14-1.5,13.21-4.12,1.26-.65,3.71-4.11,9.78-5.79,0,0,5.89-1.77,8.28,2.31,3.14,5.34,1.5,11.33-.12,24.79s-1.74,29,0,40.49c1,6.66,2.69,14.57,1.85,19.3a.86.86,0,0,1,0,.16,3.92,3.92,0,0,1-.38,1.31,4,4,0,0,1-2,2.37c-3.63,2.93-11.12,5-20.09,5-8.49,0-15.53-1.63-19.31-4.17-1.69-.59-3.54-2.56-3.46-8.26C384.81,471.68,388.92,460.72,386.18,449.51Z"/><path class="cls-67" d="M397.66,374.14c-.77-4.08.11-12.42.11-12.42a1.22,1.22,0,0,1,1.26-1.18c10.24-.36,20.55,12.57,22.55,15.22a7,7,0,0,1,1.77,4.57,7.22,7.22,0,0,1-.18,1.55l0,.14c-.7,5-8.58,13.17-8.58,13.17h-.07a4.78,4.78,0,0,1-3.38,1.37,4.54,4.54,0,0,1-4.56-3.59l0-.07a29.93,29.93,0,0,1-.62-9c.1-1.65-5-3.22-5.19-3.25l-.06,0a3.23,3.23,0,0,1-2-2h0a.11.11,0,0,0,0-.06,4.64,4.64,0,0,1-.11-.51C398.33,377,398.33,376.75,397.66,374.14Z"/><path class="cls-68" d="M380.92,455.38,372.63,501s-5.07.29-5.26,4.29-2.32,15.4-2.32,15.4-2.09,6.75,3.95-3,7.64-11.25,7.1-14.6c.46-2.32,12.82-28.52,12.31-31.26-.42-2.27,4.08-11.36,1.81-15-.31-.49-4.54,3.34-4.54,3.34Z"/><path class="cls-69" d="M380.24,458c-1.22-1.29.52-5.27-1.95-20.64-1.46-9.07-1.16-14-.67-16.53a9.3,9.3,0,0,1,4.25-6.5,8.86,8.86,0,0,1,12.28,2.37,8.2,8.2,0,0,1,.78,1.57c3.49,5.21-2.56,30.61-3.11,34.95s.23,8.06-3.37,7.94C385.73,461,382.1,460,380.24,458Z"/><g class="cls-1"><path class="cls-2" d="M266.16,546.91a7.69,7.69,0,0,0-7.12-.18l-54.51,30.52c-2,1.12-2,3-.11,4.24l68,43a7.71,7.71,0,0,0,7.13.19l54.5-30.53c2-1.11,2-3,.11-4.24Z"/></g><path class="cls-70" d="M330.67,588.36l.21-5.63a2.18,2.18,0,0,0-1.22-2.27l-61-38.52a6.89,6.89,0,0,0-6.38-.17L213.4,569.14a2.24,2.24,0,0,0-1.36,2l-.23,5.75a1.32,1.32,0,0,0,0,.34v.06h0a2.41,2.41,0,0,0,1.26,1.74l61,38.52a6.89,6.89,0,0,0,6.38.17l48.87-27.37a2.23,2.23,0,0,0,1.36-2Z"/><path class="cls-71" d="M268.65,541.94a6.89,6.89,0,0,0-6.38-.17L213.4,569.14c-1.78,1-1.83,2.71-.1,3.8l61,38.52a6.89,6.89,0,0,0,6.38.17l48.87-27.37c1.78-1,1.83-2.71.1-3.8Z"/><path class="cls-72" d="M342.54,579l-.12-5.63a2.17,2.17,0,0,0-1.36-2.19l-63.18-34.84a6.89,6.89,0,0,0-6.38.21l-47.16,30.22a2.23,2.23,0,0,0-1.24,2.08l.1,5.76a1.82,1.82,0,0,0,0,.33V575h0a2.37,2.37,0,0,0,1.35,1.66l63.18,34.84a6.88,6.88,0,0,0,6.39-.21l47.16-30.22a2.24,2.24,0,0,0,1.24-2.07Z"/><path class="cls-73" d="M277.88,536.38a6.89,6.89,0,0,0-6.38.21l-47.16,30.22c-1.72,1.1-1.67,2.81.12,3.8l63.19,34.84a6.89,6.89,0,0,0,6.38-.21L341.19,575c1.72-1.1,1.66-2.81-.13-3.8Z"/><path class="cls-74" d="M336.86,566.92l0-5.64a2.16,2.16,0,0,0-1.31-2.21l-62.54-36a6.88,6.88,0,0,0-6.38.09L218.9,552.52a2.23,2.23,0,0,0-1.27,2.06v5.75a1,1,0,0,0,0,.35v.05h0a2.42,2.42,0,0,0,1.33,1.69l62.53,36a6.91,6.91,0,0,0,6.39-.1L335.58,569a2.22,2.22,0,0,0,1.28-2Z"/><path class="cls-75" d="M273,523.08a6.88,6.88,0,0,0-6.38.09L218.9,552.52c-1.74,1.07-1.72,2.79.06,3.81l62.53,36a6.9,6.9,0,0,0,6.39-.09l47.7-29.35c1.74-1.07,1.72-2.78-.05-3.8Z"/><path class="cls-36" d="M281.58,578l-3.4-27.89-17.35,2.79,4.33-12.39L234.36,543l-15.46,9.51c-1.74,1.07-1.72,2.79.06,3.81l62.53,36a6.9,6.9,0,0,0,6.39-.09l9.43-5.81-.85-11.23Z"/><path class="cls-20" d="M310.28,560.92c0,6.07-6.47,11-14.44,11s-14.45-4.92-14.45-11,6.47-11,14.45-11S310.28,554.85,310.28,560.92Z"/><g class="cls-1"><path class="cls-2" d="M135,442.12A6.56,6.56,0,0,1,141,442l46.42,26c1.69,1,1.73,2.57.09,3.61l-57.94,36.59a6.58,6.58,0,0,1-6.07.15l-46.41-26c-1.69-.95-1.74-2.57-.09-3.61Z"/></g><path class="cls-10" d="M80,477.41l-.18-4.79a1.84,1.84,0,0,1,1-1.93l51.94-32.8a5.88,5.88,0,0,1,5.44-.14l41.61,23.3a1.92,1.92,0,0,1,1.16,1.71l.2,4.89a1.43,1.43,0,0,1,0,.29V468h0a2.07,2.07,0,0,1-1.07,1.48l-52,32.8a5.86,5.86,0,0,1-5.43.15L81.19,479.11a1.89,1.89,0,0,1-1.16-1.7Z"/><path class="cls-76" d="M132.83,437.89a5.88,5.88,0,0,1,5.44-.14l41.61,23.3c1.52.85,1.56,2.31.09,3.24L128,497.09a5.88,5.88,0,0,1-5.44.14L81,473.93c-1.52-.85-1.55-2.31-.08-3.24Z"/><path class="cls-10" d="M76,467l0-4.79a1.85,1.85,0,0,1,1.11-1.89l53.25-30.64a5.85,5.85,0,0,1,5.44.08l40.62,25a1.88,1.88,0,0,1,1.08,1.75v4.9a1.41,1.41,0,0,1,0,.29v0h0a2,2,0,0,1-1.13,1.43l-53.25,30.65a5.91,5.91,0,0,1-5.44-.08l-40.61-25A1.92,1.92,0,0,1,76,467Z"/><path class="cls-77" d="M130.41,429.71a5.85,5.85,0,0,1,5.44.08l40.62,25c1.48.91,1.46,2.37-.05,3.24l-53.25,30.64a5.88,5.88,0,0,1-5.44-.08l-40.61-25c-1.49-.91-1.47-2.37,0-3.24Z"/><path class="cls-2" d="M134.83,458.09a.42.42,0,0,0-.24.31.34.34,0,0,0,.17.31l1.26.91a.71.71,0,0,0,.44.12.88.88,0,0,0,.49-.13l1.54-.93a.42.42,0,0,0,.24-.31.31.31,0,0,0-.15-.31l-1.27-.9a.74.74,0,0,0-.46-.13,1,1,0,0,0-.49.13Z"/><path class="cls-2" d="M127.39,446.64a.48.48,0,0,0-.25.29.33.33,0,0,0,.16.3l.62.44a.73.73,0,0,0,.43.13.83.83,0,0,0,.44-.12l.11-.07a4.15,4.15,0,0,1,2-.65,4.23,4.23,0,0,1,2,.5,22.12,22.12,0,0,1,2.65,1.67,5.76,5.76,0,0,0,4.56,1.08q-.88,1.55,1.26,3.08a17.68,17.68,0,0,1,2.32,1.88,1.62,1.62,0,0,1,.6,1.33c-.07.41-.46.84-1.15,1.28l-.12.07a.4.4,0,0,0-.2.29.28.28,0,0,0,.14.28l.64.46a.77.77,0,0,0,.43.12.9.9,0,0,0,.47-.13l.11-.07a4.34,4.34,0,0,0,2-2,2.16,2.16,0,0,0-.42-2,11.58,11.58,0,0,0-2.58-2.34,3.31,3.31,0,0,1-1.17-1.22,1.44,1.44,0,0,1,.06-1.18l.09-.15a.86.86,0,0,0,.13-.48.62.62,0,0,0-.27-.35l-.33-.24a1.3,1.3,0,0,0-.52-.21,2.45,2.45,0,0,0-.73.05l-.27,0a4.4,4.4,0,0,1-1.79-.06,5.06,5.06,0,0,1-1.72-.85,16,16,0,0,0-3.32-1.9,6.45,6.45,0,0,0-3.05-.44,7.77,7.77,0,0,0-3.25,1.18Z"/><path class="cls-2" d="M129.28,461.46a.43.43,0,0,0-.24.31.34.34,0,0,0,.17.31l1.26.91a.71.71,0,0,0,.44.12.82.82,0,0,0,.49-.13l1.54-.94a.41.41,0,0,0,.24-.3.3.3,0,0,0-.16-.3l-1.26-.9a.76.76,0,0,0-.46-.14.86.86,0,0,0-.49.13Z"/><path class="cls-2" d="M108.47,458.13a4.41,4.41,0,0,0-2,2,2.12,2.12,0,0,0,.43,2,11.67,11.67,0,0,0,2.59,2.34,3.23,3.23,0,0,1,1.15,1.22,1.45,1.45,0,0,1-.07,1.2l-.08.14a.79.79,0,0,0-.13.48.53.53,0,0,0,.25.35l.35.24a1.06,1.06,0,0,0,.5.2,2.94,2.94,0,0,0,.75,0l.25,0a4.91,4.91,0,0,1,1.81.06,4.8,4.8,0,0,1,1.73.86,15.84,15.84,0,0,0,3.32,1.88,6.7,6.7,0,0,0,3,.45,7.8,7.8,0,0,0,3.24-1.17l.13-.08a.45.45,0,0,0,.23-.29.29.29,0,0,0-.14-.3l-.65-.46a.69.69,0,0,0-.42-.1.94.94,0,0,0-.47.12l-.11.06a4.22,4.22,0,0,1-2,.65,4.31,4.31,0,0,1-2-.49,21.65,21.65,0,0,1-2.65-1.68,5.75,5.75,0,0,0-4.54-1.07q.87-1.55-1.27-3.08a18,18,0,0,1-2.31-1.87,1.61,1.61,0,0,1-.6-1.34c.07-.41.45-.84,1.15-1.28l.09-.08a.45.45,0,0,0,.23-.29.27.27,0,0,0-.14-.29l-.62-.45a.76.76,0,0,0-.45-.12.85.85,0,0,0-.45.13Z"/><path class="cls-2" d="M123.73,464.83a.43.43,0,0,0-.24.31.35.35,0,0,0,.16.32l1.27.9a.71.71,0,0,0,.44.12.92.92,0,0,0,.49-.13l1.53-.93a.46.46,0,0,0,.25-.31.3.3,0,0,0-.16-.3l-1.26-.9a.76.76,0,0,0-.46-.14.92.92,0,0,0-.49.13Z"/><g class="cls-1"><path class="cls-2" d="M37.71,539.3a3.76,3.76,0,0,0-3.47-.09L7.7,554.08a1.1,1.1,0,0,0,0,2.06l33.13,20.92a3.74,3.74,0,0,0,3.47.1l26.54-14.87a1.1,1.1,0,0,0,0-2.06Z"/></g><path class="cls-10" d="M69.12,559.48l.1-2.74a1.06,1.06,0,0,0-.59-1.1L38.92,536.88a3.35,3.35,0,0,0-3.11-.08L12,550.13a1.06,1.06,0,0,0-.66,1l-.12,2.8a1,1,0,0,0,0,.17v0h0a1.15,1.15,0,0,0,.61.84l29.7,18.76a3.35,3.35,0,0,0,3.11.08l23.8-13.32a1.1,1.1,0,0,0,.66-1Z"/><path class="cls-78" d="M38.92,536.88a3.35,3.35,0,0,0-3.11-.08L12,550.13A1,1,0,0,0,12,552l29.7,18.76a3.38,3.38,0,0,0,3.11.08l23.8-13.33a1,1,0,0,0,0-1.85Z"/><path class="cls-79" d="M71.41,553.55V550.8a1,1,0,0,0-.64-1.07L40.31,532.2a3.35,3.35,0,0,0-3.11,0L14,546.54a1.09,1.09,0,0,0-.62,1v2.8a.49.49,0,0,0,0,.17v0h0a1.19,1.19,0,0,0,.65.82l30.45,17.52a3.35,3.35,0,0,0,3.11,0l23.22-14.3a1.1,1.1,0,0,0,.63-1Z"/><path class="cls-80" d="M40.31,532.2a3.35,3.35,0,0,0-3.11,0L14,546.54a1,1,0,0,0,0,1.85l30.45,17.52a3.35,3.35,0,0,0,3.11,0l23.22-14.29a1,1,0,0,0,0-1.85Z"/><path class="cls-45" d="M47.7,548a.17.17,0,0,1,.1.13c0,.05,0,.09-.1.13l-6.07,3.54a.51.51,0,0,1-.22,0,.46.46,0,0,1-.21,0l-.44-.24c-.06,0-.09-.07-.09-.12s0-.08.1-.12l2.68-1.56L40.3,548l-2.68,1.56a.55.55,0,0,1-.22.06.43.43,0,0,1-.21-.06l-.44-.24c-.06,0-.09-.07-.09-.11a.18.18,0,0,1,.11-.12l6.07-3.54a.58.58,0,0,1,.21-.07.36.36,0,0,1,.21,0l.43.24c.07,0,.1.08.1.13s0,.08-.1.12l-2.59,1.51,3.15,1.76,2.59-1.51a.43.43,0,0,1,.22-.06.36.36,0,0,1,.21,0Z"/><path class="cls-45" d="M40.85,544.78c0,.41-.25.81-.89,1.18a3.79,3.79,0,0,1-2.06.54,4.65,4.65,0,0,1-2.1-.61L34.17,545l-2.35,1.37a.65.65,0,0,1-.21.06.46.46,0,0,1-.21,0L31,546.1c-.07,0-.09-.07-.09-.11s0-.08.1-.12L37,542.33a.58.58,0,0,1,.21-.07.36.36,0,0,1,.21,0l2.3,1.28C40.43,544,40.79,544.36,40.85,544.78Zm-4.34.65a2.45,2.45,0,0,0,2.58.05q.58-.35.57-.72c0-.25-.26-.5-.71-.76l-1.59-.88-2.44,1.42,1.59.89Z"/><path class="cls-45" d="M53.1,551.61c.06.42-.25.81-.89,1.19a3.86,3.86,0,0,1-2.05.53,4.52,4.52,0,0,1-2.11-.6l-1.63-.91-2.34,1.36a.43.43,0,0,1-.22.06.46.46,0,0,1-.21,0l-.45-.25c-.06,0-.09-.07-.09-.11a.2.2,0,0,1,.1-.13l6.07-3.54a.43.43,0,0,1,.22-.06.36.36,0,0,1,.21,0L52,550.42C52.68,550.8,53.05,551.2,53.1,551.61Zm-4.34.65a2.45,2.45,0,0,0,2.59,0c.39-.23.58-.47.56-.72s-.25-.5-.71-.76L49.61,550l-2.44,1.43,1.59.88Z"/><path class="cls-9" d="M154.64,601.84c0,8.9-12.42,16.12-27.75,16.12s-27.75-7.22-27.75-16.12,12.42-16.11,27.75-16.11S154.64,592.94,154.64,601.84Z"/><path class="cls-10" d="M152.54,573l-12.26-1-8.73-.78-18,.55-11.42.79-1.84,1.23,3.21,26.36v0c0,7.35,10.25,13.3,22.9,13.3,12.26,0,22.27-5.59,22.88-12.62l0,0Z"/><path class="cls-11" d="M152.54,573.51c0,7.56-11.68,13.69-26.1,13.69s-26.1-6.13-26.1-13.69,11.68-13.69,26.1-13.69S152.54,566,152.54,573.51Z"/><path class="cls-12" d="M143.45,573.51c0,4.93-7.61,8.92-17,8.92s-17-4-17-8.92,7.62-8.92,17-8.92S143.45,568.58,143.45,573.51Z"/><g class="cls-1"><path class="cls-2" d="M188.9,509.31a3.15,3.15,0,0,0-2.94-.08l-22.5,12.6a.93.93,0,0,0,0,1.75l28.08,17.73a3.15,3.15,0,0,0,2.94.07l22.49-12.59a.94.94,0,0,0,0-1.75Z"/></g><path class="cls-10" d="M215.52,526.41l.08-2.32a.89.89,0,0,0-.5-.94l-25.17-15.9a2.83,2.83,0,0,0-2.64-.06l-20.17,11.29a.91.91,0,0,0-.55.83l-.1,2.37a.66.66,0,0,0,0,.14v0h0a1,1,0,0,0,.52.72l25.18,15.89a2.81,2.81,0,0,0,2.63.08L215,527.23a.94.94,0,0,0,.56-.82Z"/><path class="cls-81" d="M189.93,507.25a2.83,2.83,0,0,0-2.64-.06l-20.17,11.29a.84.84,0,0,0,0,1.57l25.18,15.89a2.79,2.79,0,0,0,2.63.07l20.17-11.29a.84.84,0,0,0,0-1.57Z"/><path class="cls-82" d="M217.46,521.38v-2.33a.9.9,0,0,0-.54-.91L191.1,503.29a2.84,2.84,0,0,0-2.63,0l-19.69,12.11a.93.93,0,0,0-.53.85v2.54h0a1,1,0,0,0,.54.69l25.81,14.86a2.84,2.84,0,0,0,2.63,0l19.69-12.11a.94.94,0,0,0,.53-.84Z"/><path class="cls-83" d="M191.1,503.29a2.84,2.84,0,0,0-2.63,0l-19.69,12.11a.84.84,0,0,0,0,1.57l25.81,14.85a2.84,2.84,0,0,0,2.63,0l19.69-12.11a.84.84,0,0,0,0-1.57Z"/><path class="cls-45" d="M190.7,512.35a2.16,2.16,0,0,1,.94.81.9.9,0,0,1,.05.81,1.65,1.65,0,0,1-.63.7l-.17.05-.17,0-.39-.22-.09-.09a.17.17,0,0,1,.07-.12c.34-.31.48-.58.4-.81s-.28-.46-.69-.68a3,3,0,0,0-3,.21l-.69.41-.7.44c-1,.67-1.08,1.26-.17,1.75a2.76,2.76,0,0,0,1.21.36,3.24,3.24,0,0,0,1.38-.28.59.59,0,0,1,.21,0l.17,0,.39.21.08.1-.07.1a3.9,3.9,0,0,1-1.18.4,4.4,4.4,0,0,1-2.88-.47c-.69-.38-1-.78-1-1.23s.38-.88,1-1.32c.14-.1.39-.25.72-.45l.75-.45a5.21,5.21,0,0,1,2.24-.69A4.07,4.07,0,0,1,190.7,512.35Z"/><path class="cls-45" d="M200.62,517.7a2.1,2.1,0,0,1,.83.72.82.82,0,0,1,.09.7,1,1,0,0,1-.44.56l-.18.05-.16,0-.4-.22-.07-.09,0-.11a.52.52,0,0,0,.21-.57,1.17,1.17,0,0,0-.6-.59,2.64,2.64,0,0,0-1.08-.33,1.58,1.58,0,0,0-1,.23.55.55,0,0,0-.32.37.58.58,0,0,0,.12.44,6.39,6.39,0,0,0,.56.68,4.38,4.38,0,0,1,.67.81.68.68,0,0,1,.07.61,1.29,1.29,0,0,1-.56.56,3.07,3.07,0,0,1-1.78.44,4.66,4.66,0,0,1-2-.56,2.55,2.55,0,0,1-.91-.74.88.88,0,0,1-.16-.74,1.1,1.1,0,0,1,.49-.61l.17,0,.16,0,.39.21c.09,0,.11.12,0,.21a.57.57,0,0,0-.19.58c.06.23.29.45.71.68a3,3,0,0,0,1.26.39,1.71,1.71,0,0,0,1-.24.49.49,0,0,0,.3-.37.69.69,0,0,0-.16-.46,7.8,7.8,0,0,0-.62-.72,2.93,2.93,0,0,1-.58-.76.75.75,0,0,1,0-.6,1.4,1.4,0,0,1,.59-.57,3,3,0,0,1,1-.37,4.18,4.18,0,0,1,1.22,0A4.4,4.4,0,0,1,200.62,517.7Z"/><path class="cls-45" d="M195.71,515.05a2,2,0,0,1,.83.72.88.88,0,0,1,.1.71,1.13,1.13,0,0,1-.45.55l-.17.05-.17,0-.39-.21-.08-.08,0-.12a.49.49,0,0,0,.21-.57,1.14,1.14,0,0,0-.6-.59,2.76,2.76,0,0,0-1.07-.33,1.69,1.69,0,0,0-1,.23.68.68,0,0,0-.33.36.66.66,0,0,0,.13.45,6.52,6.52,0,0,0,.57.68,4.26,4.26,0,0,1,.66.81.72.72,0,0,1,.08.61,1.27,1.27,0,0,1-.57.56,3.07,3.07,0,0,1-1.78.44,4.66,4.66,0,0,1-2-.56,2.64,2.64,0,0,1-.91-.74.88.88,0,0,1-.16-.74,1.11,1.11,0,0,1,.5-.61l.16,0,.16,0,.39.21c.1,0,.11.12,0,.21a.54.54,0,0,0-.19.58c0,.23.28.45.7.68a3,3,0,0,0,1.25.39,1.72,1.72,0,0,0,1-.24c.19-.12.3-.24.31-.37a.71.71,0,0,0-.17-.46,6.48,6.48,0,0,0-.62-.72,3.18,3.18,0,0,1-.58-.76.71.71,0,0,1,0-.6,1.47,1.47,0,0,1,.59-.57,2.81,2.81,0,0,1,1-.37,3.86,3.86,0,0,1,1.22,0A4.19,4.19,0,0,1,195.71,515.05Z"/></g></g></svg>